<svg viewBox="0 0 914 200" xmlns="http://www.w3.org/2000/svg"><rect x="0" y="0" width="914" height="200" fill="#000000" /><text x="119.0" y="30.0" class="small" fill="#FFFFFF" text-anchor="middle" font-family="monospace">0</text><text x="159.0" y="30.0" class="small" fill="#FFFFFF" text-anchor="middle" font-family="monospace">1</text><text x="199.0" y="30.0" class="small" fill="#FFFFFF" text-anchor="middle" font-family="monospace">2</text><text x="239.0" y="30.0" class="small" fill="#FFFFFF" text-anchor="middle" font-family="monospace">3</text><text x="279.0" y="30.0" class="small" fill="#FFFFFF" text-anchor="middle" font-family="monospace">4</text><text x="319.0" y="30.0" class="small" fill="#FFFFFF" text-anchor="middle" font-family="monospace">5</text><text x="359.0" y="30.0" class="small" fill="#FFFFFF" text-anchor="middle" font-family="monospace">6</text><text x="399.0" y="30.0" class="small" fill="#FFFFFF" text-anchor="middle" font-family="monospace">7</text><text x="439.0" y="30.0" class="small" fill="#FFFFFF" text-anchor="middle" font-family="monospace">8</text><text x="479.0" y="30.0" class="small" fill="#FFFFFF" text-anchor="middle" font-family="monospace">9</text><text x="519.0" y="30.0" class="small" fill="#FFFFFF" text-anchor="middle" font-family="monospace">10</text><text x="559.0" y="30.0" class="small" fill="#FFFFFF" text-anchor="middle" font-family="monospace">11</text><text x="599.0" y="30.0" class="small" fill="#FFFFFF" text-anchor="middle" font-family="monospace">12</text><text x="639.0" y="30.0" class="small" fill="#FFFFFF" text-anchor="middle" font-family="monospace">13</text><text x="679.0" y="30.0" class="small" fill="#FFFFFF" text-anchor="middle" font-family="monospace">14</text><text x="719.0" y="30.0" class="small" fill="#FFFFFF" text-anchor="middle" font-family="monospace">15</text><text x="759.0" y="30.0" class="small" fill="#FFFFFF" text-anchor="middle" font-family="monospace">16</text><text x="799.0" y="30.0" class="small" fill="#FFFFFF" text-anchor="middle" font-family="monospace">17</text><text x="839.0" y="30.0" class="small" fill="#FFFFFF" text-anchor="middle" font-family="monospace">18</text><text x="879.0" y="30.0" class="small" fill="#FFFFFF" text-anchor="middle" font-family="monospace">19</text><text x="15" y="60" class="small" fill="#FFFFFF" font-family="monospace">D0</text><line x1="99.0" x2="139.0" y1="45" y2="45" stroke="#00FF00" /><line x1="139.0" x2="144.0" y1="45" y2="45" stroke="#00FF00" /><line x1="144.0" x2="144.0" y1="45" y2="65" stroke="#3DB8B8" /><line x1="144.0" x2="179.0" y1="65" y2="65" stroke="#3DB8B8" /><line x1="179.0" x2="219.0" y1="65" y2="65" stroke="#3DB8B8" /><line x1="219.0" x2="259.0" y1="65" y2="65" stroke="#3DB8B8" /><line x1="259.0" x2="264.0" y1="65" y2="65" stroke="#3DB8B8" /><line x1="264.0" x2="264.0" y1="65" y2="45" stroke="#00FF00" /><line x1="264.0" x2="299.0" y1="45" y2="45" stroke="#00FF00" /><line x1="299.0" x2="339.0" y1="45" y2="45" stroke="#00FF00" /><line x1="339.0" x2="379.0" y1="45" y2="45" stroke="#00FF00" /><line x1="379.0" x2="419.0" y1="45" y2="45" stroke="#00FF00" /><line x1="419.0" x2="424.0" y1="45" y2="45" stroke="#00FF00" /><line x1="424.0" x2="424.0" y1="45" y2="65" stroke="#3DB8B8" /><line x1="424.0" x2="459.0" y1="65" y2="65" stroke="#3DB8B8" /><line x1="459.0" x2="499.0" y1="65" y2="65" stroke="#3DB8B8" /><line x1="499.0" x2="539.0" y1="65" y2="65" stroke="#3DB8B8" /><line x1="539.0" x2="579.0" y1="65" y2="65" stroke="#3DB8B8" /><line x1="579.0" x2="584.0" y1="65" y2="65" stroke="#3DB8B8" /><line x1="584.0" x2="584.0" y1="65" y2="45" stroke="#00FF00" /><line x1="584.0" x2="619.0" y1="45" y2="45" stroke="#00FF00" /><line x1="619.0" x2="659.0" y1="45" y2="45" stroke="#00FF00" /><line x1="659.0" x2="699.0" y1="45" y2="45" stroke="#00FF00" /><line x1="699.0" x2="739.0" y1="45" y2="45" stroke="#00FF00" /><line x1="739.0" x2="779.0" y1="45" y2="45" stroke="#00FF00" /><line x1="779.0" x2="784.0" y1="45" y2="45" stroke="#00FF00" /><line x1="784.0" x2="784.0" y1="45" y2="65" stroke="#3DB8B8" /><line x1="784.0" x2="819.0" y1="65" y2="65" stroke="#3DB8B8" /><line x1="819.0" x2="859.0" y1="65" y2="65" stroke="#3DB8B8" /><line x1="859.0" x2="899.0" y1="65" y2="65" stroke="#3DB8B8" /><text x="15" y="90" class="small" fill="#FFFFFF" font-family="monospace">D1</text><line x1="99.0" x2="139.0" y1="95" y2="95" stroke="#3DB8B8" /><line x1="139.0" x2="144.0" y1="95" y2="95" stroke="#3DB8B8" /><line x1="144.0" x2="144.0" y1="95" y2="75" stroke="#00FF00" /><line x1="144.0" x2="179.0" y1="75" y2="75" stroke="#00FF00" /><line x1="179.0" x2="219.0" y1="75" y2="75" stroke="#00FF00" /><line x1="219.0" x2="259.0" y1="75" y2="75" stroke="#00FF00" /><line x1="259.0" x2="264.0" y1="75" y2="75" stroke="#00FF00" /><line x1="264.0" x2="264.0" y1="75" y2="95" stroke="#3DB8B8" /><line x1="264.0" x2="299.0" y1="95" y2="95" stroke="#3DB8B8" /><line x1="299.0" x2="304.0" y1="95" y2="95" stroke="#3DB8B8" /><line x1="304.0" x2="304.0" y1="95" y2="75" stroke="#00FF00" /><line x1="304.0" x2="339.0" y1="75" y2="75" stroke="#00FF00" /><line x1="339.0" x2="379.0" y1="75" y2="75" stroke="#00FF00" /><line x1="379.0" x2="419.0" y1="75" y2="75" stroke="#00FF00" /><line x1="419.0" x2="459.0" y1="75" y2="75" stroke="#00FF00" /><line x1="459.0" x2="464.0" y1="75" y2="75" stroke="#00FF00" /><line x1="464.0" x2="464.0" y1="75" y2="95" stroke="#3DB8B8" /><line x1="464.0" x2="499.0" y1="95" y2="95" stroke="#3DB8B8" /><line x1="499.0" x2="539.0" y1="95" y2="95" stroke="#3DB8B8" /><line x1="539.0" x2="544.0" y1="95" y2="95" stroke="#3DB8B8" /><line x1="544.0" x2="544.0" y1="95" y2="75" stroke="#00FF00" /><line x1="544.0" x2="579.0" y1="75" y2="75" stroke="#00FF00" /><line x1="579.0" x2="619.0" y1="75" y2="75" stroke="#00FF00" /><line x1="619.0" x2="659.0" y1="75" y2="75" stroke="#00FF00" /><line x1="659.0" x2="699.0" y1="75" y2="75" stroke="#00FF00" /><line x1="699.0" x2="739.0" y1="75" y2="75" stroke="#00FF00" /><line x1="739.0" x2="744.0" y1="75" y2="75" stroke="#00FF00" /><line x1="744.0" x2="744.0" y1="75" y2="95" stroke="#3DB8B8" /><line x1="744.0" x2="779.0" y1="95" y2="95" stroke="#3DB8B8" /><line x1="779.0" x2="784.0" y1="95" y2="95" stroke="#3DB8B8" /><line x1="784.0" x2="784.0" y1="95" y2="75" stroke="#00FF00" /><line x1="784.0" x2="819.0" y1="75" y2="75" stroke="#00FF00" /><line x1="819.0" x2="859.0" y1="75" y2="75" stroke="#00FF00" /><line x1="859.0" x2="899.0" y1="75" y2="75" stroke="#00FF00" /><text x="15" y="120" class="small" fill="#FFFFFF" font-family="monospace">D2</text><line x1="99.0" x2="139.0" y1="125" y2="125" stroke="#3DB8B8" /><line x1="139.0" x2="144.0" y1="125" y2="125" stroke="#3DB8B8" /><line x1="144.0" x2="144.0" y1="125" y2="105" stroke="#00FF00" /><line x1="144.0" x2="179.0" y1="105" y2="105" stroke="#00FF00" /><line x1="179.0" x2="219.0" y1="105" y2="105" stroke="#00FF00" /><line x1="219.0" x2="259.0" y1="105" y2="105" stroke="#00FF00" /><line x1="259.0" x2="299.0" y1="105" y2="105" stroke="#00FF00" /><line x1="299.0" x2="339.0" y1="105" y2="105" stroke="#00FF00" /><line x1="339.0" x2="379.0" y1="105" y2="105" stroke="#00FF00" /><line x1="379.0" x2="419.0" y1="105" y2="105" stroke="#00FF00" /><line x1="419.0" x2="459.0" y1="105" y2="105" stroke="#00FF00" /><line x1="459.0" x2="464.0" y1="105" y2="105" stroke="#00FF00" /><line x1="464.0" x2="464.0" y1="105" y2="125" stroke="#3DB8B8" /><line x1="464.0" x2="499.0" y1="125" y2="125" stroke="#3DB8B8" /><line x1="499.0" x2="539.0" y1="125" y2="125" stroke="#3DB8B8" /><line x1="539.0" x2="544.0" y1="125" y2="125" stroke="#3DB8B8" /><line x1="544.0" x2="544.0" y1="125" y2="105" stroke="#00FF00" /><line x1="544.0" x2="579.0" y1="105" y2="105" stroke="#00FF00" /><line x1="579.0" x2="619.0" y1="105" y2="105" stroke="#00FF00" /><line x1="619.0" x2="659.0" y1="105" y2="105" stroke="#00FF00" /><line x1="659.0" x2="699.0" y1="105" y2="105" stroke="#00FF00" /><line x1="699.0" x2="739.0" y1="105" y2="105" stroke="#00FF00" /><line x1="739.0" x2="744.0" y1="105" y2="105" stroke="#00FF00" /><line x1="744.0" x2="744.0" y1="105" y2="125" stroke="#3DB8B8" /><line x1="744.0" x2="779.0" y1="125" y2="125" stroke="#3DB8B8" /><line x1="779.0" x2="784.0" y1="125" y2="125" stroke="#3DB8B8" /><line x1="784.0" x2="784.0" y1="125" y2="105" stroke="#00FF00" /><line x1="784.0" x2="819.0" y1="105" y2="105" stroke="#00FF00" /><line x1="819.0" x2="859.0" y1="105" y2="105" stroke="#00FF00" /><line x1="859.0" x2="899.0" y1="105" y2="105" stroke="#00FF00" /><text x="15" y="150" class="small" fill="#FFFFFF" font-family="monospace">D3</text><line x1="99.0" x2="139.0" y1="135" y2="135" stroke="#00FF00" /><line x1="139.0" x2="144.0" y1="135" y2="135" stroke="#00FF00" /><line x1="144.0" x2="144.0" y1="135" y2="155" stroke="#3DB8B8" /><line x1="144.0" x2="179.0" y1="155" y2="155" stroke="#3DB8B8" /><line x1="179.0" x2="219.0" y1="155" y2="155" stroke="#3DB8B8" /><line x1="219.0" x2="259.0" y1="155" y2="155" stroke="#3DB8B8" /><line x1="259.0" x2="264.0" y1="155" y2="155" stroke="#3DB8B8" /><line x1="264.0" x2="264.0" y1="155" y2="135" stroke="#00FF00" /><line x1="264.0" x2="299.0" y1="135" y2="135" stroke="#00FF00" /><line x1="299.0" x2="339.0" y1="135" y2="135" stroke="#00FF00" /><line x1="339.0" x2="379.0" y1="135" y2="135" stroke="#00FF00" /><line x1="379.0" x2="419.0" y1="135" y2="135" stroke="#00FF00" /><line x1="419.0" x2="459.0" y1="135" y2="135" stroke="#00FF00" /><line x1="459.0" x2="464.0" y1="135" y2="135" stroke="#00FF00" /><line x1="464.0" x2="464.0" y1="135" y2="155" stroke="#3DB8B8" /><line x1="464.0" x2="499.0" y1="155" y2="155" stroke="#3DB8B8" /><line x1="499.0" x2="539.0" y1="155" y2="155" stroke="#3DB8B8" /><line x1="539.0" x2="544.0" y1="155" y2="155" stroke="#3DB8B8" /><line x1="544.0" x2="544.0" y1="155" y2="135" stroke="#00FF00" /><line x1="544.0" x2="579.0" y1="135" y2="135" stroke="#00FF00" /><line x1="579.0" x2="619.0" y1="135" y2="135" stroke="#00FF00" /><line x1="619.0" x2="659.0" y1="135" y2="135" stroke="#00FF00" /><line x1="659.0" x2="699.0" y1="135" y2="135" stroke="#00FF00" /><line x1="699.0" x2="739.0" y1="135" y2="135" stroke="#00FF00" /><line x1="739.0" x2="744.0" y1="135" y2="135" stroke="#00FF00" /><line x1="744.0" x2="744.0" y1="135" y2="155" stroke="#3DB8B8" /><line x1="744.0" x2="779.0" y1="155" y2="155" stroke="#3DB8B8" /><line x1="779.0" x2="784.0" y1="155" y2="155" stroke="#3DB8B8" /><line x1="784.0" x2="784.0" y1="155" y2="135" stroke="#00FF00" /><line x1="784.0" x2="819.0" y1="135" y2="135" stroke="#00FF00" /><line x1="819.0" x2="859.0" y1="135" y2="135" stroke="#00FF00" /><line x1="859.0" x2="864.0" y1="135" y2="135" stroke="#00FF00" /><line x1="864.0" x2="864.0" y1="135" y2="155" stroke="#3DB8B8" /><line x1="864.0" x2="899.0" y1="155" y2="155" stroke="#3DB8B8" /><text x="15" y="180" class="small" fill="#FFFFFF" font-family="monospace">Data</text><line x1="99.0" x2="104.0" y1="165" y2="165" stroke="#3DB8B8" /><line x1="104.0" x2="109.0" y1="165" y2="185" stroke="#3DB8B8" /><line x1="109.0" x2="139.0" y1="185" y2="185" stroke="#3DB8B8" /><line x1="99.0" x2="104.0" y1="185" y2="185" stroke="#3DB8B8" /><line x1="104.0" x2="109.0" y1="185" y2="165" stroke="#3DB8B8" /><line x1="109.0" x2="139.0" y1="165" y2="165" stroke="#3DB8B8" /><text x="114.0" y="180.0" class="small" fill="#FFFFFF" font-family="monospace">12</text><line x1="139.0" x2="179.0" y1="185" y2="185" stroke="#3DB8B8" /><line x1="139.0" x2="179.0" y1="165" y2="165" stroke="#3DB8B8" /><line x1="179.0" x2="184.0" y1="165" y2="165" stroke="#3DB8B8" /><line x1="184.0" x2="189.0" y1="165" y2="185" stroke="#3DB8B8" /><line x1="189.0" x2="219.0" y1="185" y2="185" stroke="#3DB8B8" /><line x1="179.0" x2="184.0" y1="185" y2="185" stroke="#3DB8B8" /><line x1="184.0" x2="189.0" y1="185" y2="165" stroke="#3DB8B8" /><line x1="189.0" x2="219.0" y1="165" y2="165" stroke="#3DB8B8" /><text x="194.0" y="180.0" class="small" fill="#FFFFFF" font-family="monospace">13</text><line x1="219.0" x2="224.0" y1="165" y2="165" stroke="#3DB8B8" /><line x1="224.0" x2="229.0" y1="165" y2="185" stroke="#3DB8B8" /><line x1="229.0" x2="259.0" y1="185" y2="185" stroke="#3DB8B8" /><line x1="219.0" x2="224.0" y1="185" y2="185" stroke="#3DB8B8" /><line x1="224.0" x2="229.0" y1="185" y2="165" stroke="#3DB8B8" /><line x1="229.0" x2="259.0" y1="165" y2="165" stroke="#3DB8B8" /><text x="234.0" y="180.0" class="small" fill="#FFFFFF" font-family="monospace">1</text><line x1="259.0" x2="299.0" y1="185" y2="185" stroke="#3DB8B8" /><line x1="259.0" x2="299.0" y1="165" y2="165" stroke="#3DB8B8" /><line x1="299.0" x2="339.0" y1="185" y2="185" stroke="#3DB8B8" /><line x1="299.0" x2="339.0" y1="165" y2="165" stroke="#3DB8B8" /><line x1="339.0" x2="344.0" y1="165" y2="165" stroke="#3DB8B8" /><line x1="344.0" x2="349.0" y1="165" y2="185" stroke="#3DB8B8" /><line x1="349.0" x2="379.0" y1="185" y2="185" stroke="#3DB8B8" /><line x1="339.0" x2="344.0" y1="185" y2="185" stroke="#3DB8B8" /><line x1="344.0" x2="349.0" y1="185" y2="165" stroke="#3DB8B8" /><line x1="349.0" x2="379.0" y1="165" y2="165" stroke="#3DB8B8" /><text x="354.0" y="180.0" class="small" fill="#FFFFFF" font-family="monospace">3</text><line x1="379.0" x2="384.0" y1="165" y2="165" stroke="#3DB8B8" /><line x1="384.0" x2="389.0" y1="165" y2="185" stroke="#3DB8B8" /><line x1="389.0" x2="419.0" y1="185" y2="185" stroke="#3DB8B8" /><line x1="379.0" x2="384.0" y1="185" y2="185" stroke="#3DB8B8" /><line x1="384.0" x2="389.0" y1="185" y2="165" stroke="#3DB8B8" /><line x1="389.0" x2="419.0" y1="165" y2="165" stroke="#3DB8B8" /><text x="394.0" y="180.0" class="small" fill="#FFFFFF" font-family="monospace">2</text><line x1="419.0" x2="424.0" y1="165" y2="165" stroke="#3DB8B8" /><line x1="424.0" x2="429.0" y1="165" y2="185" stroke="#3DB8B8" /><line x1="429.0" x2="459.0" y1="185" y2="185" stroke="#3DB8B8" /><line x1="419.0" x2="424.0" y1="185" y2="185" stroke="#3DB8B8" /><line x1="424.0" x2="429.0" y1="185" y2="165" stroke="#3DB8B8" /><line x1="429.0" x2="459.0" y1="165" y2="165" stroke="#3DB8B8" /><text x="434.0" y="180.0" class="small" fill="#FFFFFF" font-family="monospace">1</text><line x1="459.0" x2="499.0" y1="185" y2="185" stroke="#3DB8B8" /><line x1="459.0" x2="499.0" y1="165" y2="165" stroke="#3DB8B8" /><line x1="499.0" x2="504.0" y1="165" y2="165" stroke="#3DB8B8" /><line x1="504.0" x2="509.0" y1="165" y2="185" stroke="#3DB8B8" /><line x1="509.0" x2="539.0" y1="185" y2="185" stroke="#3DB8B8" /><line x1="499.0" x2="504.0" y1="185" y2="185" stroke="#3DB8B8" /><line x1="504.0" x2="509.0" y1="185" y2="165" stroke="#3DB8B8" /><line x1="509.0" x2="539.0" y1="165" y2="165" stroke="#3DB8B8" /><text x="514.0" y="180.0" class="small" fill="#FFFFFF" font-family="monospace">15</text><line x1="539.0" x2="579.0" y1="185" y2="185" stroke="#3DB8B8" /><line x1="539.0" x2="579.0" y1="165" y2="165" stroke="#3DB8B8" /><line x1="579.0" x2="584.0" y1="165" y2="165" stroke="#3DB8B8" /><line x1="584.0" x2="589.0" y1="165" y2="185" stroke="#3DB8B8" /><line x1="589.0" x2="619.0" y1="185" y2="185" stroke="#3DB8B8" /><line x1="579.0" x2="584.0" y1="185" y2="185" stroke="#3DB8B8" /><line x1="584.0" x2="589.0" y1="185" y2="165" stroke="#3DB8B8" /><line x1="589.0" x2="619.0" y1="165" y2="165" stroke="#3DB8B8" /><text x="594.0" y="180.0" class="small" fill="#FFFFFF" font-family="monospace">0</text><line x1="619.0" x2="624.0" y1="165" y2="165" stroke="#3DB8B8" /><line x1="624.0" x2="629.0" y1="165" y2="185" stroke="#3DB8B8" /><line x1="629.0" x2="659.0" y1="185" y2="185" stroke="#3DB8B8" /><line x1="619.0" x2="624.0" y1="185" y2="185" stroke="#3DB8B8" /><line x1="624.0" x2="629.0" y1="185" y2="165" stroke="#3DB8B8" /><line x1="629.0" x2="659.0" y1="165" y2="165" stroke="#3DB8B8" /><text x="634.0" y="180.0" class="small" fill="#FFFFFF" font-family="monospace">1</text><line x1="659.0" x2="664.0" y1="165" y2="165" stroke="#3DB8B8" /><line x1="664.0" x2="669.0" y1="165" y2="185" stroke="#3DB8B8" /><line x1="669.0" x2="699.0" y1="185" y2="185" stroke="#3DB8B8" /><line x1="659.0" x2="664.0" y1="185" y2="185" stroke="#3DB8B8" /><line x1="664.0" x2="669.0" y1="185" y2="165" stroke="#3DB8B8" /><line x1="669.0" x2="699.0" y1="165" y2="165" stroke="#3DB8B8" /><text x="674.0" y="180.0" class="small" fill="#FFFFFF" font-family="monospace">2</text><line x1="699.0" x2="704.0" y1="165" y2="165" stroke="#3DB8B8" /><line x1="704.0" x2="709.0" y1="165" y2="185" stroke="#3DB8B8" /><line x1="709.0" x2="739.0" y1="185" y2="185" stroke="#3DB8B8" /><line x1="699.0" x2="704.0" y1="185" y2="185" stroke="#3DB8B8" /><line x1="704.0" x2="709.0" y1="185" y2="165" stroke="#3DB8B8" /><line x1="709.0" x2="739.0" y1="165" y2="165" stroke="#3DB8B8" /><text x="714.0" y="180.0" class="small" fill="#FFFFFF" font-family="monospace">3</text><line x1="739.0" x2="744.0" y1="165" y2="165" stroke="#3DB8B8" /><line x1="744.0" x2="749.0" y1="165" y2="185" stroke="#3DB8B8" /><line x1="749.0" x2="779.0" y1="185" y2="185" stroke="#3DB8B8" /><line x1="739.0" x2="744.0" y1="185" y2="185" stroke="#3DB8B8" /><line x1="744.0" x2="749.0" y1="185" y2="165" stroke="#3DB8B8" /><line x1="749.0" x2="779.0" y1="165" y2="165" stroke="#3DB8B8" /><text x="754.0" y="180.0" class="small" fill="#FFFFFF" font-family="monospace">4</text><line x1="779.0" x2="784.0" y1="165" y2="165" stroke="#3DB8B8" /><line x1="784.0" x2="789.0" y1="165" y2="185" stroke="#3DB8B8" /><line x1="789.0" x2="819.0" y1="185" y2="185" stroke="#3DB8B8" /><line x1="779.0" x2="784.0" y1="185" y2="185" stroke="#3DB8B8" /><line x1="784.0" x2="789.0" y1="185" y2="165" stroke="#3DB8B8" /><line x1="789.0" x2="819.0" y1="165" y2="165" stroke="#3DB8B8" /><text x="794.0" y="180.0" class="small" fill="#FFFFFF" font-family="monospace">5</text><line x1="819.0" x2="824.0" y1="165" y2="165" stroke="#3DB8B8" /><line x1="824.0" x2="829.0" y1="165" y2="185" stroke="#3DB8B8" /><line x1="829.0" x2="859.0" y1="185" y2="185" stroke="#3DB8B8" /><line x1="819.0" x2="824.0" y1="185" y2="185" stroke="#3DB8B8" /><line x1="824.0" x2="829.0" y1="185" y2="165" stroke="#3DB8B8" /><line x1="829.0" x2="859.0" y1="165" y2="165" stroke="#3DB8B8" /><text x="834.0" y="180.0" class="small" fill="#FFFFFF" font-family="monospace">6</text><line x1="859.0" x2="864.0" y1="165" y2="165" stroke="#3DB8B8" /><line x1="864.0" x2="869.0" y1="165" y2="185" stroke="#3DB8B8" /><line x1="869.0" x2="899.0" y1="185" y2="185" stroke="#3DB8B8" /><line x1="859.0" x2="864.0" y1="185" y2="185" stroke="#3DB8B8" /><line x1="864.0" x2="869.0" y1="185" y2="165" stroke="#3DB8B8" /><line x1="869.0" x2="899.0" y1="165" y2="165" stroke="#3DB8B8" /><text x="874.0" y="180.0" class="small" fill="#FFFFFF" font-family="monospace">7</text></svg>
